PathFileType	4	(X/Y/Z)	../Python\walking\Walking09\task.trc
DataRate	CameraRate	NumFrames	NumMarkers	Units	OrigDataRate	OrigDataStartFrame	OrigNumFrames
200.000000	200.000000	4	30	mm	200.000000	167	668
Frame#	Time	CLAV			STRN			RASI			LASI			RTH1			RTH2			RTH3			RTB1			RTB2			RTB3			RHEE			RD5M			RTOE			LTH1			LTH3			LTB1			LTB3			LTOE			LD5M			LPSI			LTB2			LTH2			RPSI			PE02			T10			PE03			PE01			C7			LHEE			RBAK			
		X1	Y1	Z1	X2	Y2	Z2	X3	Y3	Z3	X4	Y4	Z4	X5	Y5	Z5	X6	Y6	Z6	X7	Y7	Z7	X8	Y8	Z8	X9	Y9	Z9	X10	Y10	Z10	X11	Y11	Z11	X12	Y12	Z12	X13	Y13	Z13	X14	Y14	Z14	X15	Y15	Z15	X16	Y16	Z16	X17	Y17	Z17	X18	Y18	Z18	X19	Y19	Z19	X20	Y20	Z20	X21	Y21	Z21	X22	Y22	Z22	X23	Y23	Z23	X24	Y24	Z24	X25	Y25	Z25	X26	Y26	Z26	X27	Y27	Z27	X28	Y28	Z28	X29	Y29	Z29	X30	Y30	Z30	

168	0.835	-302.7637329101564	1427.858032226563	132.3660888671876	-254.2350921630861	1233.675537109375	146.5433502197266	-294.3461914062501	1026.191650390625	299.1727600097657	-277.3756713867189	1014.640380859375	28.29408454895021	-357.0270385742189	760.8613281250002	325.2872314453126	-417.2528991699221	744.8129882812502	325.2739562988282	-404.2683715820315	699.273376464844	308.2011718750001	-452.0513916015627	361.0334777832032	244.0675048828126	-501.2303771972659	324.2756958007814	247.3151702880861	-472.4922180175784	286.227508544922	229.918670654297	-605.9846191406252	31.95040130615236	143.8251037597657	-449.9414062500002	16.53353500366212	227.8107299804689	-388.3518066406252	29.25915908813478	183.0655364990235	-246.0825347900392	721.4791259765627	-10.95580482482911	-191.9799804687501	665.5036621093752	3.017103910446169	-180.5804595947266	387.7296447753909	18.77172279357911	-162.8995056152344	311.1809082031251	22.00397300720216	-40.32593917846681	54.1154708862305	61.28977203369143	-81.12282562255862	37.33421325683595	25.32428932189943	-450.248718261719	1067.034423828125	103.5238571166993	-210.6422882080079	349.9447631835939	31.3440341949463	-253.0876922607423	674.8596801757815	5.91340208053589	-451.7332763671877	1071.478637695313	202.9859619140626	-456.5859069824221	1058.012084960938	180.4827270507813	-482.8294372558596	1263.613891601563	141.7679443359376	-457.397155761719	1055.369506835938	129.4524383544922	-441.6860656738284	1115.858154296875	151.2801361083985	-418.2774047851565	1519.470947265625	121.1035842895508	-242.9494018554689	56.31823730468753	90.77848815917972	-430.8529968261721	1442.588256835938	300.3332824707032	
169	0.84	-296.3723754882814	1426.851684570313	132.3678131103516	-248.0420684814454	1232.603393554688	146.6278991699219	-288.473846435547	1025.127319335938	299.1423339843751	-270.9658508300782	1013.715881347657	28.15141105651857	-352.5527954101564	760.0425415039065	325.3172302246095	-412.895690917969	744.4031982421877	325.3269653320314	-400.208923339844	698.772644042969	308.2393798828126	-450.2531738281252	360.8442382812501	244.0205230712892	-499.6643676757815	324.4006652832032	247.1791076660157	-471.1353149414065	286.159637451172	229.8359527587892	-605.9138183593752	32.472713470459	143.5710449218751	-450.0046691894534	16.58980751037598	227.7150421142579	-388.3512268066409	29.23481369018556	183.0585021972657	-239.9392242431642	720.4993286132815	-11.19487094879151	-185.8467102050782	664.5004882812502	2.657786130905152	-170.453842163086	385.5675048828127	18.80875396728516	-150.3254547119141	309.6107177734376	21.96588706970216	-19.46671104431153	56.00516510009768	62.36380386352542	-59.55871582031253	37.85792541503908	26.34691429138185	-444.0141296386721	1066.14111328125	103.3075256347657	-199.2451477050782	346.8805541992189	31.49327278137208	-246.9389953613282	673.933288574219	5.735993385314943	-445.726013183594	1070.62548828125	202.7308959960939	-450.4999694824221	1057.167846679688	180.232162475586	-476.6919860839846	1262.817016601563	141.9321441650391	-451.1960144042971	1054.498901367188	129.1958007812501	-435.5620422363284	1114.982421875	151.0149383544922	-411.852722167969	1518.537475585938	121.1197967529297	-222.1411895751954	52.51529693603518	91.02825927734378	-424.380310058594	1441.790405273438	300.4533996582032	
170	0.845	-289.9635009765626	1425.812133789063	132.3603820800782	-241.8271942138673	1231.496704101563	146.7001647949219	-282.5849914550782	1024.055541992188	299.1221008300782	-264.5001525878907	1012.739196777344	28.00936698913576	-348.0494689941407	759.2241210937502	325.3579101562501	-408.5007019042971	743.985534667969	325.3845825195314	-396.1030273437502	698.2678833007815	308.2798767089845	-448.4177551269534	360.6659545898439	243.9652099609376	-498.0647888183596	324.5437622070314	247.0269317626954	-469.747741699219	286.1080932617189	229.7439422607423	-605.8326416015627	33.04303359985353	143.2849121093751	-450.0748596191409	16.65077590942384	227.6048583984376	-388.3490905761721	29.207576751709	183.0580596923829	-234.0229339599611	719.3262939453127	-11.41812038421631	-179.9475097656251	663.2807617187502	2.233930349349976	-160.3981628417969	383.4235229492189	18.80893707275391	-137.8562927246094	308.1295166015626	21.91899299621583	1.110594868659974	58.16974639892581	63.55752182006839	-38.20343017578126	38.67762374877931	27.46117019653322	-437.7420654296877	1065.203247070313	103.0607681274415	-187.9112396240235	343.8742980957032	31.57618331909181	-241.0060119628907	672.8264160156252	5.615867614746096	-439.6972351074221	1069.737915039063	202.4497833251954	-444.3883972167971	1056.28662109375	179.9508514404297	-470.5362243652346	1261.983154296875	142.0772705078126	-444.9611816406252	1053.587158203125	128.9104919433594	-429.4157409667971	1114.070922851563	150.7206726074219	-405.4134216308596	1517.572265625	121.1266784667969	-201.4567871093751	49.07777786254886	91.23223876953128	-417.9006652832034	1440.946166992188	300.5618591308595	
171	0.85	-283.536834716797	1424.742919921875	132.3435211181641	-235.5900115966798	1230.359252929688	146.7612457275391	-276.678924560547	1022.979125976563	299.1138916015626	-257.978729248047	1011.71484375	27.8704071044922	-343.5151672363282	758.4085693359377	325.4095153808595	-404.0664672851565	743.5622558593752	325.445037841797	-391.9492492675784	697.7613525390627	308.3221740722657	-446.5381469726565	360.5000610351564	243.9001770019532	-496.4252929687502	324.7069702148439	246.8592071533204	-468.3238525390627	286.0748596191407	229.6426239013673	-605.740417480469	33.66478347778322	142.9701080322266	-450.1512145996096	16.71632766723634	227.4813385009767	-388.3444519042971	29.17756652832033	183.0643005371094	-228.3348846435548	717.9600830078127	-11.627516746521	-174.2830657958985	661.845153808594	1.753265380859376	-150.4062652587891	381.3099365234376	18.77036857604981	-125.495231628418	306.7457580566407	21.86800575256348	21.37055206298829	60.60797119140628	64.85757446289065	-17.0967140197754	39.79784393310548	28.65723419189455	-431.4318542480471	1064.222778320313	102.7819213867188	-176.6407928466797	340.9399414062501	31.58492279052736	-235.2887115478517	671.5388793945315	5.553082942962648	-433.6459655761721	1068.8173828125	202.1421661376954	-438.2509460449221	1055.369873046875	179.6377563476563	-464.3610534667971	1261.115112304688	142.2029266357422	-438.6928405761721	1052.636352539063	128.5957489013672	-423.2463073730471	1113.125610351563	150.3977203369141	-398.9593505859377	1516.578247070313	121.1234207153321	-180.9365234375001	46.01122665405275	91.39283752441409	-411.4142150878909	1440.058959960938	300.6578979492189	
